<mxfile host="65bd71144e">
    <diagram id="af0zJv1sFqZIyem5Vi3e" name="ページ1">
        <mxGraphModel dx="1159" dy="779" grid="1" gridSize="10" guides="1" tooltips="1" connect="1" arrows="1" fold="1" page="1" pageScale="1" pageWidth="827" pageHeight="1169" math="0" shadow="0">
            <root>
                <mxCell id="0"/>
                <mxCell id="1" parent="0"/>
                <mxCell id="30" value="VPC&amp;nbsp;&lt;span style=&quot;border-color: var(--border-color); color: rgb(212, 212, 212); font-family: Consolas, &amp;quot;Courier New&amp;quot;, monospace; background-color: rgb(30, 30, 30);&quot;&gt;[&lt;/span&gt;&lt;span style=&quot;border-color: var(--border-color); font-family: Consolas, &amp;quot;Courier New&amp;quot;, monospace; background-color: rgb(30, 30, 30); color: rgb(206, 145, 120);&quot;&gt;&quot;10.0.0.0/21&quot;]&lt;/span&gt;" style="sketch=0;outlineConnect=0;gradientColor=none;html=1;whiteSpace=wrap;fontSize=12;fontStyle=0;shape=mxgraph.aws4.group;grIcon=mxgraph.aws4.group_vpc;strokeColor=#879196;fillColor=none;verticalAlign=top;align=left;spacingLeft=30;fontColor=#879196;dashed=0;rounded=0;" parent="1" vertex="1">
                    <mxGeometry x="210" y="20" width="610" height="730" as="geometry"/>
                </mxCell>
                <mxCell id="73" value="AZ1(us-west-2a)" style="fillColor=none;strokeColor=default;dashed=1;verticalAlign=top;fontStyle=0;fontColor=#000000;rounded=0;align=center;" parent="1" vertex="1">
                    <mxGeometry x="240" y="52" width="570" height="328" as="geometry"/>
                </mxCell>
                <mxCell id="27" value="AZ1(us-west-2b)" style="fillColor=none;strokeColor=default;dashed=1;verticalAlign=bottom;fontStyle=0;fontColor=#000000;rounded=0;align=center;" parent="1" vertex="1">
                    <mxGeometry x="240" y="420" width="570" height="320" as="geometry"/>
                </mxCell>
                <mxCell id="69" value="Public subnet 2&lt;br&gt;&amp;nbsp;&amp;nbsp;&lt;span style=&quot;border-color: var(--border-color); color: rgb(212, 212, 212); font-family: Consolas, &amp;quot;Courier New&amp;quot;, monospace; background-color: rgb(30, 30, 30);&quot;&gt;[&lt;/span&gt;&lt;span style=&quot;border-color: var(--border-color); font-family: Consolas, &amp;quot;Courier New&amp;quot;, monospace; background-color: rgb(30, 30, 30); color: rgb(206, 145, 120);&quot;&gt;&quot;10.0.2.0/24&quot;]&lt;/span&gt;" style="points=[[0,0],[0.25,0],[0.5,0],[0.75,0],[1,0],[1,0.25],[1,0.5],[1,0.75],[1,1],[0.75,1],[0.5,1],[0.25,1],[0,1],[0,0.75],[0,0.5],[0,0.25]];outlineConnect=0;gradientColor=none;html=1;whiteSpace=wrap;fontSize=12;fontStyle=0;container=1;pointerEvents=0;collapsible=0;recursiveResize=0;shape=mxgraph.aws4.group;grIcon=mxgraph.aws4.group_security_group;grStroke=0;strokeColor=#248814;fillColor=#E9F3E6;verticalAlign=top;align=right;spacingLeft=30;fontColor=#248814;dashed=0;" parent="1" vertex="1">
                    <mxGeometry x="250" y="430" width="337" height="270" as="geometry"/>
                </mxCell>
                <mxCell id="16" value="Private subnet 1&amp;nbsp;&lt;br&gt;&lt;span style=&quot;color: rgb(36, 136, 20);&quot;&gt;&amp;nbsp;&lt;/span&gt;&lt;span style=&quot;border-color: var(--border-color); color: rgb(212, 212, 212); font-family: Consolas, &amp;quot;Courier New&amp;quot;, monospace; background-color: rgb(30, 30, 30);&quot;&gt;[&lt;/span&gt;&lt;span style=&quot;border-color: var(--border-color); font-family: Consolas, &amp;quot;Courier New&amp;quot;, monospace; background-color: rgb(30, 30, 30); color: rgb(206, 145, 120);&quot;&gt;&quot;10.0.3.0/24&quot;]&lt;/span&gt;" style="points=[[0,0],[0.25,0],[0.5,0],[0.75,0],[1,0],[1,0.25],[1,0.5],[1,0.75],[1,1],[0.75,1],[0.5,1],[0.25,1],[0,1],[0,0.75],[0,0.5],[0,0.25]];outlineConnect=0;gradientColor=none;html=1;whiteSpace=wrap;fontSize=12;fontStyle=0;container=1;pointerEvents=0;collapsible=0;recursiveResize=0;shape=mxgraph.aws4.group;grIcon=mxgraph.aws4.group_security_group;grStroke=0;strokeColor=#147EBA;fillColor=#E6F2F8;verticalAlign=top;align=left;spacingLeft=30;fontColor=#147EBA;dashed=0;" parent="1" vertex="1">
                    <mxGeometry x="610" y="91.75" width="192" height="280.25" as="geometry"/>
                </mxCell>
                <mxCell id="57" value="" style="group" parent="16" vertex="1" connectable="0">
                    <mxGeometry x="40" y="67.75" width="126" height="199.5" as="geometry"/>
                </mxCell>
                <mxCell id="58" value="" style="group" parent="57" vertex="1" connectable="0">
                    <mxGeometry width="126" height="199.5" as="geometry"/>
                </mxCell>
                <mxCell id="59" value="SecurityGroup" style="rounded=1;arcSize=10;dashed=1;strokeColor=#ff0000;fillColor=none;gradientColor=none;dashPattern=8 4;strokeWidth=2;verticalAlign=top;" parent="58" vertex="1">
                    <mxGeometry width="126" height="199.5" as="geometry"/>
                </mxCell>
                <mxCell id="60" value="RDS [Master]" style="sketch=0;points=[[0,0,0],[0.25,0,0],[0.5,0,0],[0.75,0,0],[1,0,0],[0,1,0],[0.25,1,0],[0.5,1,0],[0.75,1,0],[1,1,0],[0,0.25,0],[0,0.5,0],[0,0.75,0],[1,0.25,0],[1,0.5,0],[1,0.75,0]];outlineConnect=0;fontColor=#232F3E;gradientColor=#4D72F3;gradientDirection=north;fillColor=#3334B9;strokeColor=#ffffff;dashed=0;verticalLabelPosition=bottom;verticalAlign=top;align=center;html=1;fontSize=12;fontStyle=0;aspect=fixed;shape=mxgraph.aws4.resourceIcon;resIcon=mxgraph.aws4.rds;" parent="58" vertex="1">
                    <mxGeometry x="27.900000000000002" y="90" width="70.2" height="70.2" as="geometry"/>
                </mxCell>
                <mxCell id="61" value="" style="sketch=0;outlineConnect=0;fontColor=#232F3E;gradientColor=none;fillColor=#2E27AD;strokeColor=none;dashed=0;verticalLabelPosition=bottom;verticalAlign=top;align=center;html=1;fontSize=12;fontStyle=0;aspect=fixed;pointerEvents=1;shape=mxgraph.aws4.rds_mysql_instance;rounded=0;" parent="58" vertex="1">
                    <mxGeometry x="41.4" y="40" width="43.2" height="43.2" as="geometry"/>
                </mxCell>
                <mxCell id="13" value="Public subnet 1&lt;br&gt;&amp;nbsp;&amp;nbsp;&lt;span style=&quot;border-color: var(--border-color); color: rgb(212, 212, 212); font-family: Consolas, &amp;quot;Courier New&amp;quot;, monospace; background-color: rgb(30, 30, 30);&quot;&gt;[&lt;/span&gt;&lt;span style=&quot;border-color: var(--border-color); font-family: Consolas, &amp;quot;Courier New&amp;quot;, monospace; background-color: rgb(30, 30, 30); color: rgb(206, 145, 120);&quot;&gt;&quot;10.0.1.0/24&quot;]&lt;/span&gt;" style="points=[[0,0],[0.25,0],[0.5,0],[0.75,0],[1,0],[1,0.25],[1,0.5],[1,0.75],[1,1],[0.75,1],[0.5,1],[0.25,1],[0,1],[0,0.75],[0,0.5],[0,0.25]];outlineConnect=0;gradientColor=none;html=1;whiteSpace=wrap;fontSize=12;fontStyle=0;container=1;pointerEvents=0;collapsible=0;recursiveResize=0;shape=mxgraph.aws4.group;grIcon=mxgraph.aws4.group_security_group;grStroke=0;strokeColor=#248814;fillColor=#E9F3E6;verticalAlign=top;align=right;spacingLeft=30;fontColor=#248814;dashed=0;" parent="1" vertex="1">
                    <mxGeometry x="250" y="92" width="337" height="278" as="geometry"/>
                </mxCell>
                <mxCell id="7" value="SecurityGroup" style="rounded=1;arcSize=10;dashed=1;strokeColor=#ff0000;fillColor=none;gradientColor=none;dashPattern=8 4;strokeWidth=2;verticalAlign=top;" parent="13" vertex="1">
                    <mxGeometry x="200" y="67.25" width="130" height="199.5" as="geometry"/>
                </mxCell>
                <mxCell id="63" value="" style="group" parent="13" vertex="1" connectable="0">
                    <mxGeometry x="226" y="109" width="78" height="128" as="geometry"/>
                </mxCell>
                <mxCell id="2" value="EC2" style="sketch=0;points=[[0,0,0],[0.25,0,0],[0.5,0,0],[0.75,0,0],[1,0,0],[0,1,0],[0.25,1,0],[0.5,1,0],[0.75,1,0],[1,1,0],[0,0.25,0],[0,0.5,0],[0,0.75,0],[1,0.25,0],[1,0.5,0],[1,0.75,0]];outlineConnect=0;fontColor=#232F3E;gradientColor=#F78E04;gradientDirection=north;fillColor=#D05C17;strokeColor=#ffffff;dashed=0;verticalLabelPosition=bottom;verticalAlign=top;align=center;html=1;fontSize=12;fontStyle=0;aspect=fixed;shape=mxgraph.aws4.resourceIcon;resIcon=mxgraph.aws4.ec2;" parent="63" vertex="1">
                    <mxGeometry y="50" width="78" height="78" as="geometry"/>
                </mxCell>
                <mxCell id="3" value="" style="dashed=0;outlineConnect=0;html=1;align=center;labelPosition=center;verticalLabelPosition=bottom;verticalAlign=top;shape=mxgraph.weblogos.wordpress_2;fillColor=#00A7DA;strokeColor=none" parent="63" vertex="1">
                    <mxGeometry x="14" width="50" height="50" as="geometry"/>
                </mxCell>
                <mxCell id="102" value="" style="endArrow=block;html=1;fontSize=12;fontColor=#000000;strokeWidth=2;endFill=1;" parent="13" edge="1">
                    <mxGeometry relative="1" as="geometry">
                        <mxPoint x="302" y="201" as="sourcePoint"/>
                        <mxPoint x="422" y="201" as="targetPoint"/>
                    </mxGeometry>
                </mxCell>
                <mxCell id="103" value="TCP3306" style="edgeLabel;resizable=0;html=1;align=center;verticalAlign=middle;rounded=0;strokeColor=#1A1A1A;fontSize=12;fontColor=#000000;" parent="102" connectable="0" vertex="1">
                    <mxGeometry relative="1" as="geometry"/>
                </mxCell>
                <mxCell id="17" value="Private subnet 2&amp;nbsp;&lt;br&gt;&lt;span style=&quot;color: rgb(36, 136, 20);&quot;&gt;&amp;nbsp;&lt;/span&gt;&lt;span style=&quot;border-color: var(--border-color); color: rgb(212, 212, 212); font-family: Consolas, &amp;quot;Courier New&amp;quot;, monospace; background-color: rgb(30, 30, 30);&quot;&gt;[&lt;/span&gt;&lt;span style=&quot;border-color: var(--border-color); font-family: Consolas, &amp;quot;Courier New&amp;quot;, monospace; background-color: rgb(30, 30, 30); color: rgb(206, 145, 120);&quot;&gt;&quot;10.0.4.0/24&quot;]&lt;/span&gt;" style="points=[[0,0],[0.25,0],[0.5,0],[0.75,0],[1,0],[1,0.25],[1,0.5],[1,0.75],[1,1],[0.75,1],[0.5,1],[0.25,1],[0,1],[0,0.75],[0,0.5],[0,0.25]];outlineConnect=0;gradientColor=none;html=1;whiteSpace=wrap;fontSize=12;fontStyle=0;container=1;pointerEvents=0;collapsible=0;recursiveResize=0;shape=mxgraph.aws4.group;grIcon=mxgraph.aws4.group_security_group;grStroke=0;strokeColor=#147EBA;fillColor=#E6F2F8;verticalAlign=top;align=left;spacingLeft=30;fontColor=#147EBA;dashed=0;" parent="1" vertex="1">
                    <mxGeometry x="610" y="430" width="192" height="270" as="geometry"/>
                </mxCell>
                <mxCell id="52" value="" style="group" parent="17" vertex="1" connectable="0">
                    <mxGeometry x="40" y="53" width="126" height="199.5" as="geometry"/>
                </mxCell>
                <mxCell id="56" value="" style="group" parent="52" vertex="1" connectable="0">
                    <mxGeometry width="126.00000000000003" height="199.5" as="geometry"/>
                </mxCell>
                <mxCell id="53" value="SecurityGroup" style="rounded=1;arcSize=10;dashed=1;strokeColor=#ff0000;fillColor=none;gradientColor=none;dashPattern=8 4;strokeWidth=2;verticalAlign=top;" parent="56" vertex="1">
                    <mxGeometry width="126.00000000000003" height="199.5" as="geometry"/>
                </mxCell>
                <mxCell id="54" value="RDS [Slave]" style="sketch=0;points=[[0,0,0],[0.25,0,0],[0.5,0,0],[0.75,0,0],[1,0,0],[0,1,0],[0.25,1,0],[0.5,1,0],[0.75,1,0],[1,1,0],[0,0.25,0],[0,0.5,0],[0,0.75,0],[1,0.25,0],[1,0.5,0],[1,0.75,0]];outlineConnect=0;fontColor=#232F3E;gradientColor=#4D72F3;gradientDirection=north;fillColor=#3334B9;strokeColor=#ffffff;dashed=0;verticalLabelPosition=bottom;verticalAlign=top;align=center;html=1;fontSize=12;fontStyle=0;aspect=fixed;shape=mxgraph.aws4.resourceIcon;resIcon=mxgraph.aws4.rds;" parent="56" vertex="1">
                    <mxGeometry x="27.900000000000002" y="90" width="64.62857142857143" height="64.62857142857143" as="geometry"/>
                </mxCell>
                <mxCell id="55" value="" style="sketch=0;outlineConnect=0;fontColor=#232F3E;gradientColor=none;fillColor=#2E27AD;strokeColor=none;dashed=0;verticalLabelPosition=bottom;verticalAlign=top;align=center;html=1;fontSize=12;fontStyle=0;aspect=fixed;pointerEvents=1;shape=mxgraph.aws4.rds_mysql_instance;rounded=0;" parent="56" vertex="1">
                    <mxGeometry x="41.4" y="40" width="39.77142857142857" height="39.77142857142857" as="geometry"/>
                </mxCell>
                <mxCell id="100" value="" style="endArrow=block;html=1;fontSize=12;fontColor=#000000;strokeWidth=2;endFill=1;" parent="17" edge="1">
                    <mxGeometry relative="1" as="geometry">
                        <mxPoint x="-62" y="190" as="sourcePoint"/>
                        <mxPoint x="58" y="190" as="targetPoint"/>
                    </mxGeometry>
                </mxCell>
                <mxCell id="101" value="TCP3306" style="edgeLabel;resizable=0;html=1;align=center;verticalAlign=middle;rounded=0;strokeColor=#1A1A1A;fontSize=12;fontColor=#000000;" parent="100" connectable="0" vertex="1">
                    <mxGeometry relative="1" as="geometry"/>
                </mxCell>
                <mxCell id="23" value="SubnetGroup" style="fillColor=none;strokeColor=#5A6C86;dashed=1;verticalAlign=top;fontStyle=0;fontColor=#000000;" parent="17" vertex="1">
                    <mxGeometry x="30" y="-300" width="150" height="560" as="geometry"/>
                </mxCell>
                <mxCell id="32" value="&lt;font style=&quot;font-size: 14px;&quot;&gt;Internet&lt;br&gt;gateway&lt;/font&gt;" style="sketch=0;outlineConnect=0;fontColor=#232F3E;gradientColor=none;strokeColor=#232F3E;fillColor=#ffffff;dashed=0;verticalLabelPosition=bottom;verticalAlign=top;align=center;html=1;fontSize=12;fontStyle=0;aspect=fixed;shape=mxgraph.aws4.resourceIcon;resIcon=mxgraph.aws4.internet_gateway;rounded=0;labelPosition=center;" parent="1" vertex="1">
                    <mxGeometry x="180" y="359" width="71" height="71" as="geometry"/>
                </mxCell>
                <mxCell id="38" value="" style="endArrow=classic;fontSize=12;fontColor=#FF0000;fontStyle=1;labelBorderColor=#FF0000;entryX=0;entryY=0.25;entryDx=0;entryDy=0;entryPerimeter=0;" parent="1" target="2" edge="1">
                    <mxGeometry relative="1" as="geometry">
                        <mxPoint x="80" y="373.5" as="sourcePoint"/>
                        <mxPoint x="180" y="373.5" as="targetPoint"/>
                        <Array as="points">
                            <mxPoint x="200" y="374"/>
                            <mxPoint x="320" y="270"/>
                        </Array>
                    </mxGeometry>
                </mxCell>
                <mxCell id="39" value="SSH" style="edgeLabel;resizable=0;html=1;align=center;verticalAlign=middle;rounded=0;strokeColor=#1A1A1A;fontSize=12;fontColor=#000000;" parent="38" connectable="0" vertex="1">
                    <mxGeometry relative="1" as="geometry">
                        <mxPoint x="-143" y="62" as="offset"/>
                    </mxGeometry>
                </mxCell>
                <mxCell id="40" value="" style="endArrow=block;html=1;fontSize=12;fontColor=#000000;strokeWidth=3;endFill=1;" parent="1" edge="1">
                    <mxGeometry relative="1" as="geometry">
                        <mxPoint x="80" y="399" as="sourcePoint"/>
                        <mxPoint x="180" y="399" as="targetPoint"/>
                    </mxGeometry>
                </mxCell>
                <mxCell id="41" value="HTTP" style="edgeLabel;resizable=0;html=1;align=center;verticalAlign=middle;rounded=0;strokeColor=#1A1A1A;fontSize=12;fontColor=#000000;" parent="40" connectable="0" vertex="1">
                    <mxGeometry relative="1" as="geometry"/>
                </mxCell>
                <mxCell id="68" value="" style="group" parent="1" vertex="1" connectable="0">
                    <mxGeometry x="440" y="485" width="130" height="199.5" as="geometry"/>
                </mxCell>
                <mxCell id="64" value="SecurityGroup" style="rounded=1;arcSize=10;dashed=1;strokeColor=#ff0000;fillColor=none;gradientColor=none;dashPattern=8 4;strokeWidth=2;verticalAlign=top;" parent="68" vertex="1">
                    <mxGeometry width="130" height="199.5" as="geometry"/>
                </mxCell>
                <mxCell id="65" value="" style="group" parent="68" vertex="1" connectable="0">
                    <mxGeometry x="26" y="45" width="78" height="128" as="geometry"/>
                </mxCell>
                <mxCell id="66" value="EC2" style="sketch=0;points=[[0,0,0],[0.25,0,0],[0.5,0,0],[0.75,0,0],[1,0,0],[0,1,0],[0.25,1,0],[0.5,1,0],[0.75,1,0],[1,1,0],[0,0.25,0],[0,0.5,0],[0,0.75,0],[1,0.25,0],[1,0.5,0],[1,0.75,0]];outlineConnect=0;fontColor=#232F3E;gradientColor=#F78E04;gradientDirection=north;fillColor=#D05C17;strokeColor=#ffffff;dashed=0;verticalLabelPosition=bottom;verticalAlign=top;align=center;html=1;fontSize=12;fontStyle=0;aspect=fixed;shape=mxgraph.aws4.resourceIcon;resIcon=mxgraph.aws4.ec2;" parent="65" vertex="1">
                    <mxGeometry y="50" width="78" height="78" as="geometry"/>
                </mxCell>
                <mxCell id="67" value="" style="dashed=0;outlineConnect=0;html=1;align=center;labelPosition=center;verticalLabelPosition=bottom;verticalAlign=top;shape=mxgraph.weblogos.wordpress_2;fillColor=#00A7DA;strokeColor=none" parent="65" vertex="1">
                    <mxGeometry x="14" width="50" height="50" as="geometry"/>
                </mxCell>
                <mxCell id="72" value="" style="sketch=0;points=[[0,0,0],[0.25,0,0],[0.5,0,0],[0.75,0,0],[1,0,0],[0,1,0],[0.25,1,0],[0.5,1,0],[0.75,1,0],[1,1,0],[0,0.25,0],[0,0.5,0],[0,0.75,0],[1,0.25,0],[1,0.5,0],[1,0.75,0]];outlineConnect=0;fontColor=#232F3E;gradientColor=#2004f6;gradientDirection=north;fillColor=#cf1794;strokeColor=#ffffff;dashed=0;verticalLabelPosition=bottom;verticalAlign=top;align=center;html=1;fontSize=12;fontStyle=0;aspect=fixed;shape=mxgraph.aws4.resourceIcon;resIcon=mxgraph.aws4.elastic_load_balancing;horizontal=1;" parent="1" vertex="1">
                    <mxGeometry x="349" y="358.5" width="71.5" height="71.5" as="geometry"/>
                </mxCell>
                <mxCell id="82" value="" style="endArrow=classic;html=1;exitX=0.5;exitY=0;exitDx=0;exitDy=0;exitPerimeter=0;" parent="1" source="72" target="2" edge="1">
                    <mxGeometry relative="1" as="geometry">
                        <mxPoint x="360" y="400" as="sourcePoint"/>
                        <mxPoint x="460" y="400" as="targetPoint"/>
                        <Array as="points">
                            <mxPoint x="384" y="290"/>
                        </Array>
                    </mxGeometry>
                </mxCell>
                <mxCell id="83" value="HTTP" style="edgeLabel;resizable=0;html=1;align=center;verticalAlign=middle;fillColor=#cf1794;gradientColor=#2004f6;fontSize=12;" parent="82" connectable="0" vertex="1">
                    <mxGeometry relative="1" as="geometry">
                        <mxPoint x="-12" y="30" as="offset"/>
                    </mxGeometry>
                </mxCell>
                <mxCell id="84" value="" style="endArrow=classic;html=1;exitX=0.5;exitY=1;exitDx=0;exitDy=0;exitPerimeter=0;entryX=0;entryY=0.5;entryDx=0;entryDy=0;entryPerimeter=0;" parent="1" source="72" target="66" edge="1">
                    <mxGeometry relative="1" as="geometry">
                        <mxPoint x="360" y="400" as="sourcePoint"/>
                        <mxPoint x="460" y="400" as="targetPoint"/>
                        <Array as="points">
                            <mxPoint x="384" y="620"/>
                        </Array>
                    </mxGeometry>
                </mxCell>
                <mxCell id="85" value="HTTP" style="edgeLabel;resizable=0;html=1;align=center;verticalAlign=middle;fillColor=#cf1794;gradientColor=#2004f6;fontSize=12;" parent="84" connectable="0" vertex="1">
                    <mxGeometry relative="1" as="geometry">
                        <mxPoint y="-60" as="offset"/>
                    </mxGeometry>
                </mxCell>
                <mxCell id="91" value="" style="endArrow=classic;fontSize=12;fontColor=#FF0000;fontStyle=1;labelBorderColor=#FF0000;entryX=0;entryY=0.75;entryDx=0;entryDy=0;entryPerimeter=0;exitX=1.023;exitY=0.753;exitDx=0;exitDy=0;exitPerimeter=0;" parent="1" source="33" target="66" edge="1">
                    <mxGeometry relative="1" as="geometry">
                        <mxPoint x="110" y="420" as="sourcePoint"/>
                        <mxPoint x="486" y="280.5" as="targetPoint"/>
                        <Array as="points">
                            <mxPoint x="220" y="420"/>
                            <mxPoint x="340" y="639"/>
                        </Array>
                    </mxGeometry>
                </mxCell>
                <mxCell id="92" value="SSH" style="edgeLabel;resizable=0;html=1;align=center;verticalAlign=middle;rounded=0;strokeColor=#1A1A1A;fontSize=12;fontColor=#000000;" parent="91" connectable="0" vertex="1">
                    <mxGeometry relative="1" as="geometry">
                        <mxPoint x="-150" y="-109" as="offset"/>
                    </mxGeometry>
                </mxCell>
                <mxCell id="93" value="ALB" style="edgeLabel;resizable=0;html=1;align=center;verticalAlign=middle;rounded=0;strokeColor=#1A1A1A;fontSize=12;fontColor=#000000;" parent="1" connectable="0" vertex="1">
                    <mxGeometry x="414.0046962000789" y="408.996787263716" as="geometry">
                        <mxPoint x="13" y="5" as="offset"/>
                    </mxGeometry>
                </mxCell>
                <mxCell id="105" value="" style="endArrow=block;html=1;fontSize=12;fontColor=#000000;strokeWidth=3;endFill=1;" parent="1" edge="1">
                    <mxGeometry relative="1" as="geometry">
                        <mxPoint x="243" y="398" as="sourcePoint"/>
                        <mxPoint x="343" y="398" as="targetPoint"/>
                    </mxGeometry>
                </mxCell>
                <mxCell id="106" value="HTTP" style="edgeLabel;resizable=0;html=1;align=center;verticalAlign=middle;rounded=0;strokeColor=#1A1A1A;fontSize=12;fontColor=#000000;" parent="105" connectable="0" vertex="1">
                    <mxGeometry relative="1" as="geometry"/>
                </mxCell>
                <mxCell id="33" value="クライアント" style="sketch=0;pointerEvents=1;shadow=0;dashed=0;html=1;strokeColor=none;fillColor=#505050;labelPosition=center;verticalLabelPosition=top;verticalAlign=bottom;outlineConnect=0;align=center;shape=mxgraph.office.devices.laptop;rounded=0;fontSize=12;fontColor=#000000;" parent="1" vertex="1">
                    <mxGeometry x="6" y="359" width="84" height="81" as="geometry"/>
                </mxCell>
            </root>
        </mxGraphModel>
    </diagram>
</mxfile>